<svg xmlns="http://www.w3.org/2000/svg" version="1.1" xmlns:xlink="http://www.w3.org/1999/xlink" xmlns:svgjs="http://svgjs.dev/svgjs" width="1440"
     height="560" preserveAspectRatio="none" viewBox="0 0 1440 560">
    <g mask="url(&quot;#SvgjsMask1095&quot;)" fill="none">
        <path d="M89.519,385.454C108.458,385.422,122.041,368.908,130.689,352.059C138.495,336.851,138.775,319.548,131.216,304.216C122.548,286.636,109.086,269.704,89.519,268.558C68.341,267.318,47.82,279.769,38.408,298.781C29.802,316.163,38.259,335.49,48.111,352.197C57.749,368.541,70.545,385.486,89.519,385.454"
              fill="#FFFFFF64" class="triangle-float3"></path>
        <path d="M1101.461,558.15C1122.617,557.812,1142.464,548.794,1154.191,531.182C1167.449,511.27,1175.556,485.582,1163.564,464.883C1151.593,444.221,1125.331,440.831,1101.461,440.17C1075.912,439.463,1046.27,439.365,1033.105,461.273C1019.718,483.55,1030.743,511.68,1045.727,532.916C1058.328,550.775,1079.607,558.499,1101.461,558.15"
              fill="#FFFFFF64" class="triangle-float1"></path>
        <path d="M967.391,259.756C1020.662,262.248,1069.922,232.942,1098.101,187.666C1128.066,139.521,1139.734,78.176,1110.738,29.44C1082.246,-18.448,1023.107,-32.889,967.391,-32.028C913.464,-31.195,856.892,-13.837,831.515,33.753C807.185,79.38,829.631,132.038,856.275,176.354C881.851,218.894,917.809,257.437,967.391,259.756"
              fill="#FFFFFF64" class="triangle-float2"></path>
        <path d="M1276.369,477.446C1322.08,477.751,1357.918,441.789,1379.233,401.351C1399,363.85,1398.746,320.22,1379.024,282.695C1357.689,242.1,1322.221,206.478,1276.369,205.628C1229.344,204.756,1188.51,236.986,1166.905,278.763C1146.955,317.34,1154.897,361.955,1175.855,399.994C1197.731,439.7,1231.036,477.144,1276.369,477.446"
              fill="#FFFFFF64" class="triangle-float4"></path>
        <path d="M4.298,513.146C28.58,513.708,51.856,500.243,62.839,478.58C72.988,458.563,65.551,435.295,53.303,416.489C42.319,399.622,24.42,389.196,4.298,388.691C-16.814,388.161,-38.048,395.959,-49.163,413.916C-60.833,432.769,-60.248,456.456,-49.731,475.976C-38.618,496.603,-19.126,512.604,4.298,513.146"
              fill="#FFFFFF64" class="triangle-float5"></path>
        <path d="M436.168,306.893C482.66,307.782,530.502,292.635,554.572,252.849C579.379,211.844,574.498,159.957,549.972,118.783C526.036,78.601,482.92,52.734,436.168,54.078C391.502,55.362,355.287,86.196,333.158,125.015C311.272,163.408,303.576,210.012,325.355,248.466C347.411,287.41,391.42,306.037,436.168,306.893"
              fill="#FFFFFF64" class="triangle-float6"></path>
    </g>
    <defs>
        <mask id="SvgjsMask1095">
            <rect width="1440" height="560" fill="#ffffff"></rect>
        </mask>
        <style>
            @keyframes float1 {
            50%{transform: translate(-100px, -20px)}
            }

            .triangle-float1 {
            animation: float1 25s infinite;
            }

            @keyframes float2 {
            50%{transform: translate(-50px, 25px)}
            }

            .triangle-float2 {
            animation: float2 30s infinite;
            }

            @keyframes float3 {
            50%{transform: translate(0, -100px)}
            }

            .triangle-float3 {
            animation: float3 25s infinite;
            }

            @keyframes float4 {
            50%{transform: translate(-20px, -30px)}
            }

            .triangle-float4 {
            animation: float4 10s infinite;
            }

            @keyframes float5 {
            50%{transform: translate(50px, -20px)}
            }

            .triangle-float5 {
            animation: float5 25s infinite;
            }

            @keyframes float6 {
            50%{transform: translate(-20px, -50px)}
            }

            .triangle-float6 {
            animation: float6 15s infinite;
            }
        </style>
    </defs>
</svg>